<svg width="100%" viewBox="0 0 680 680" xmlns="http://www.w3.org/2000/svg">
<defs>
  <clipPath id="cc">
    <circle cx="340" cy="340" r="300"/>
  </clipPath>
  <style>
    .monof { font-family: 'Consolas','Courier New',monospace; font-size: 12.5px; }
  </style>
</defs>

<circle cx="340" cy="340" r="300" fill="#0067b8"/>

<g clip-path="url(#cc)" opacity="0.07">
  <line x1="40" y1="100" x2="640" y2="100" stroke="white" stroke-width="1"/>
  <line x1="40" y1="180" x2="640" y2="180" stroke="white" stroke-width="1"/>
  <line x1="40" y1="260" x2="640" y2="260" stroke="white" stroke-width="1"/>
  <line x1="40" y1="340" x2="640" y2="340" stroke="white" stroke-width="1"/>
  <line x1="40" y1="420" x2="640" y2="420" stroke="white" stroke-width="1"/>
  <line x1="40" y1="500" x2="640" y2="500" stroke="white" stroke-width="1"/>
  <line x1="40" y1="580" x2="640" y2="580" stroke="white" stroke-width="1"/>
  <line x1="100" y1="40" x2="100" y2="640" stroke="white" stroke-width="1"/>
  <line x1="180" y1="40" x2="180" y2="640" stroke="white" stroke-width="1"/>
  <line x1="260" y1="40" x2="260" y2="640" stroke="white" stroke-width="1"/>
  <line x1="340" y1="40" x2="340" y2="640" stroke="white" stroke-width="1"/>
  <line x1="420" y1="40" x2="420" y2="640" stroke="white" stroke-width="1"/>
  <line x1="500" y1="40" x2="500" y2="640" stroke="white" stroke-width="1"/>
  <line x1="580" y1="40" x2="580" y2="640" stroke="white" stroke-width="1"/>
</g>

<g clip-path="url(#cc)">

  <!-- Azure風クラウド（大） -->
  <g opacity="0.97">
    <ellipse cx="340" cy="172" rx="100" ry="62" fill="white"/>
    <ellipse cx="255" cy="198" rx="72" ry="50" fill="white"/>
    <ellipse cx="425" cy="198" rx="72" ry="50" fill="white"/>
    <ellipse cx="340" cy="210" rx="148" ry="42" fill="white"/>
    <rect x="192" y="210" width="296" height="32" fill="white"/>
    <ellipse cx="220" cy="218" rx="40" ry="32" fill="white"/>
    <ellipse cx="460" cy="218" rx="40" ry="32" fill="white"/>
  </g>

  <!-- Azure風クラウド（小・右上） -->
  <g opacity="0.82">
    <ellipse cx="522" cy="128" rx="58" ry="42" fill="#d6eaf8"/>
    <ellipse cx="470" cy="150" rx="44" ry="34" fill="#d6eaf8"/>
    <ellipse cx="568" cy="150" rx="40" ry="30" fill="#d6eaf8"/>
    <rect x="458" y="152" width="124" height="24" fill="#d6eaf8"/>
    <ellipse cx="476" cy="160" rx="28" ry="22" fill="#d6eaf8"/>
    <ellipse cx="558" cy="160" rx="26" ry="20" fill="#d6eaf8"/>
  </g>

  <!-- Azure風クラウド（小・左） -->
  <g opacity="0.72">
    <ellipse cx="162" cy="148" rx="50" ry="36" fill="#aed6f1"/>
    <ellipse cx="118" cy="166" rx="36" ry="28" fill="#aed6f1"/>
    <ellipse cx="204" cy="166" rx="34" ry="26" fill="#aed6f1"/>
    <rect x="106" y="168" width="114" height="22" fill="#aed6f1"/>
    <ellipse cx="122" cy="175" rx="24" ry="18" fill="#aed6f1"/>
    <ellipse cx="198" cy="175" rx="22" ry="17" fill="#aed6f1"/>
  </g>

  <!-- シャドウ -->
  <rect x="118" y="298" width="444" height="308" rx="2" fill="#000000" opacity="0.25"/>
  <!-- ウィンドウ本体 -->
  <rect x="115" y="293" width="444" height="308" rx="2" fill="#1e1e1e"/>

  <!-- タイトルバー -->
  <rect x="115" y="293" width="444" height="30" rx="2" fill="#323233"/>
  <rect x="115" y="309" width="444" height="14" fill="#323233"/>

  <!-- タイトル -->
  <text x="340" y="312" text-anchor="middle" font-family="'Segoe UI',sans-serif" font-size="12" fill="#cccccc">HelloWorldWebPart.ts</text>

  <!-- 最小化ボタン -->
  <line x1="473" y1="308" x2="487" y2="308" stroke="#cccccc" stroke-width="1.2"/>

  <!-- 最大化ボタン -->
  <rect x="503" y="302" width="12" height="11" fill="none" stroke="#cccccc" stroke-width="1.2"/>

  <!-- 閉じるボタン -->
  <line x1="533" y1="302" x2="547" y2="314" stroke="#cccccc" stroke-width="1.2"/>
  <line x1="547" y1="302" x2="533" y2="314" stroke="#cccccc" stroke-width="1.2"/>

  <!-- タブバー -->
  <rect x="115" y="323" width="444" height="24" fill="#2d2d2d"/>
  <rect x="115" y="323" width="160" height="24" fill="#1e1e1e"/>
  <text x="145" y="339" font-family="'Segoe UI',sans-serif" font-size="11" fill="#cccccc">HelloWorldWebPart.ts</text>
  <line x1="115" y1="346" x2="275" y2="346" stroke="#007acc" stroke-width="2"/>

  <!-- 行番号エリア -->
  <rect x="115" y="347" width="36" height="226" fill="#1e1e1e"/>

  <!-- コード -->
  <text x="142" y="368" font-family="monospace" font-size="11" fill="#858585">1</text>
  <text x="158" y="368" class="monof" fill="#c586c0">import</text>
  <text x="203" y="368" class="monof" fill="#9cdcfe">{ Version }</text>
  <text x="275" y="368" class="monof" fill="#c586c0">from</text>
  <text x="305" y="368" class="monof" fill="#ce9178">'@microsoft/sp-core-library'</text>

  <text x="142" y="390" font-family="monospace" font-size="11" fill="#858585">2</text>
  <text x="158" y="390" class="monof" fill="#c586c0">import</text>
  <text x="203" y="390" class="monof" fill="#9cdcfe">{ BaseClientSideWebPart }</text>
  <text x="390" y="390" class="monof" fill="#c586c0">from</text>

  <text x="142" y="412" font-family="monospace" font-size="11" fill="#858585">3</text>
  <text x="168" y="412" class="monof" fill="#ce9178">'@microsoft/sp-webpart-base'</text>

  <text x="142" y="434" font-family="monospace" font-size="11" fill="#858585">4</text>

  <text x="142" y="456" font-family="monospace" font-size="11" fill="#858585">5</text>
  <text x="158" y="456" class="monof" fill="#c586c0">export default class</text>
  <text x="310" y="456" class="monof" fill="#4ec9b0">HelloWorldWebPart</text>

  <text x="142" y="478" font-family="monospace" font-size="11" fill="#858585">6</text>
  <text x="168" y="478" class="monof" fill="#c586c0">extends</text>
  <text x="224" y="478" class="monof" fill="#4ec9b0">BaseClientSideWebPart</text>
  <text x="395" y="478" class="monof" fill="#ffd700">{</text>

  <text x="142" y="500" font-family="monospace" font-size="11" fill="#858585">7</text>
  <text x="178" y="500" class="monof" fill="#c586c0">public</text>
  <text x="220" y="500" class="monof" fill="#dcdcaa">render</text>
  <text x="260" y="500" class="monof" fill="#d4d4d4">():</text>
  <text x="283" y="500" class="monof" fill="#4ec9b0">void</text>
  <text x="315" y="500" class="monof" fill="#ffd700">{</text>

  <text x="142" y="522" font-family="monospace" font-size="11" fill="#858585">8</text>
  <text x="188" y="522" class="monof" fill="#9cdcfe">this</text>
  <text x="216" y="522" class="monof" fill="#d4d4d4">.</text>
  <text x="222" y="522" class="monof" fill="#9cdcfe">domElement</text>
  <text x="303" y="522" class="monof" fill="#d4d4d4">.</text>
  <text x="309" y="522" class="monof" fill="#dcdcaa">innerHTML</text>
  <text x="378" y="522" class="monof" fill="#d4d4d4">=</text>

  <text x="142" y="544" font-family="monospace" font-size="11" fill="#858585">9</text>
  <text x="198" y="544" class="monof" fill="#ce9178">`&lt;h2&gt;Hello, SharePoint!&lt;/h2&gt;`</text>

  <text x="130" y="566" font-family="monospace" font-size="11" fill="#858585">10</text>
  <text x="178" y="566" class="monof" fill="#ffd700">}</text>

  <rect x="198" y="552" width="1.5" height="14" fill="#aeafad"/>

  <!-- ステータスバー -->
  <rect x="115" y="573" width="444" height="28" fill="#007acc"/>
  <text x="130" y="591" font-family="'Segoe UI',sans-serif" font-size="11" fill="white">SPFx 1.18  TypeScript  UTF-8  Ln 9, Col 5</text>

</g>
</svg>